<svg width="219" height="94" viewBox="0 0 219 94" fill="none" xmlns="http://www.w3.org/2000/svg">
<circle cx="39.5" cy="41.5" r="39.5" fill="#00255B"/>
<g filter="url(#filter0_i_0_1)">
<path d="M33.184 73H32.224C30.752 73 29.312 72.84 27.904 72.52C26.496 72.136 25.216 71.528 24.064 70.696C22.976 69.8 22.08 68.648 21.376 67.24C20.672 65.832 20.32 64.104 20.32 62.056V36.232C20.32 32.712 21.152 29.832 22.816 27.592C24.544 25.352 27.328 24.232 31.168 24.232C33.728 24.232 35.84 24.904 37.504 26.248C39.168 27.528 40 29.608 40 32.488C40 33.448 39.872 34.152 39.616 34.6C38.72 33.832 37.76 33.448 36.736 33.448C35.328 33.448 34.368 33.928 33.856 34.888C33.408 35.848 33.184 36.872 33.184 37.96V73ZM41.728 24.328C42.048 24.264 42.368 24.232 42.688 24.232H43.648C47.104 24.232 49.792 25.128 51.712 26.92C53.632 28.648 54.592 31.144 54.592 34.408V39.688C54.592 44.04 53.504 47.272 51.328 49.384C49.152 51.496 46.496 52.552 43.36 52.552H42.688C40.256 52.424 38.272 51.624 36.736 50.152C35.264 48.616 34.528 46.792 34.528 44.68C34.528 44.36 34.528 44.072 34.528 43.816C34.592 43.56 34.72 43.176 34.912 42.664C35.424 43.176 35.872 43.56 36.256 43.816C36.64 44.072 37.28 44.2 38.176 44.2C39.648 44.2 40.608 43.688 41.056 42.664C41.504 41.576 41.728 40.328 41.728 38.92V24.328ZM54.208 63.688C54.208 65.48 53.888 66.984 53.248 68.2C52.672 69.352 51.904 70.312 50.944 71.08C49.984 71.784 48.928 72.296 47.776 72.616C46.624 72.872 45.504 73 44.416 73C41.152 73 38.848 72.2 37.504 70.6C36.16 69 35.488 67.208 35.488 65.224C35.488 64.904 35.488 64.52 35.488 64.072C35.552 63.624 35.712 63.144 35.968 62.632C36.8 63.4 37.76 63.784 38.848 63.784C40.384 63.656 41.28 63.144 41.536 62.248C41.792 61.352 41.92 60.232 41.92 58.888V55.336C42.88 55.08 44.032 54.952 45.376 54.952C47.04 54.952 48.416 55.208 49.504 55.72C50.656 56.232 51.584 56.904 52.288 57.736C52.992 58.568 53.472 59.528 53.728 60.616C54.048 61.64 54.208 62.664 54.208 63.688Z" fill="#FFF9F9"/>
<path d="M116.22 37.048H139.548L135.9 66.28C134.108 67.592 132.252 68.728 130.332 69.688C128.412 70.616 126.396 71.384 124.284 71.992C122.204 72.6 119.996 73.048 117.66 73.336C115.356 73.624 112.892 73.768 110.268 73.768C105.948 73.768 101.996 72.984 98.4123 71.416C94.8603 69.816 91.8043 67.624 89.2443 64.84C86.7163 62.056 84.7483 58.76 83.3403 54.952C81.9643 51.144 81.2763 47.016 81.2763 42.568C81.2763 38.696 81.7083 35.016 82.5723 31.528C83.4683 28.008 84.7323 24.76 86.3643 21.784C87.9963 18.808 89.9483 16.12 92.2203 13.72C94.5243 11.32 97.0683 9.272 99.8523 7.576C102.668 5.88 105.692 4.584 108.924 3.68799C112.156 2.76 115.548 2.296 119.1 2.296C122.076 2.296 124.764 2.568 127.164 3.112C129.596 3.656 131.772 4.392 133.692 5.32C135.612 6.216 137.324 7.272 138.828 8.488C140.332 9.672 141.66 10.904 142.812 12.184L137.724 18.472C136.892 19.592 135.9 20.28 134.748 20.536C133.596 20.76 132.412 20.488 131.196 19.72C130.076 18.952 129.02 18.296 128.028 17.752C127.036 17.176 126.028 16.712 125.004 16.36C123.98 15.976 122.892 15.704 121.74 15.544C120.62 15.352 119.356 15.256 117.948 15.256C114.908 15.256 112.124 15.912 109.596 17.224C107.068 18.504 104.892 20.328 103.068 22.696C101.244 25.032 99.8203 27.848 98.7963 31.144C97.8043 34.44 97.3083 38.072 97.3083 42.04C97.3083 45.112 97.6763 47.88 98.4123 50.344C99.1803 52.776 100.252 54.84 101.628 56.536C103.004 58.2 104.652 59.48 106.572 60.376C108.492 61.272 110.62 61.72 112.956 61.72C114.876 61.72 116.604 61.56 118.14 61.24C119.676 60.888 121.148 60.408 122.556 59.8L123.9 48.376H117.948C116.988 48.376 116.252 48.136 115.74 47.656C115.26 47.144 115.068 46.488 115.164 45.688L116.22 37.048ZM165.114 23.224L159.162 73H144.474L150.426 23.224H165.114ZM167.898 9.592C167.898 10.776 167.642 11.896 167.13 12.952C166.618 13.976 165.946 14.888 165.114 15.688C164.282 16.456 163.322 17.08 162.234 17.56C161.178 18.008 160.09 18.232 158.97 18.232C157.85 18.232 156.778 18.008 155.754 17.56C154.73 17.08 153.818 16.456 153.018 15.688C152.25 14.888 151.626 13.976 151.146 12.952C150.666 11.896 150.426 10.776 150.426 9.592C150.426 8.408 150.666 7.288 151.146 6.232C151.626 5.176 152.266 4.248 153.066 3.44799C153.898 2.64799 154.826 2.024 155.85 1.576C156.874 1.096 157.946 0.855999 159.066 0.855999C160.218 0.855999 161.322 1.08 162.378 1.528C163.434 1.976 164.362 2.6 165.162 3.4C165.994 4.2 166.65 5.128 167.13 6.184C167.642 7.24 167.898 8.376 167.898 9.592ZM213.573 17.08C212.997 17.816 212.437 18.376 211.893 18.76C211.349 19.112 210.693 19.288 209.925 19.288C209.189 19.288 208.453 19.048 207.717 18.568C206.981 18.088 206.149 17.56 205.221 16.984C204.325 16.408 203.285 15.88 202.101 15.4C200.917 14.92 199.525 14.68 197.925 14.68C196.453 14.68 195.157 14.888 194.037 15.304C192.949 15.72 192.037 16.296 191.301 17.032C190.565 17.768 190.005 18.632 189.621 19.624C189.269 20.616 189.093 21.704 189.093 22.888C189.093 24.168 189.445 25.24 190.149 26.104C190.885 26.968 191.845 27.736 193.029 28.408C194.245 29.048 195.605 29.64 197.109 30.184C198.613 30.728 200.149 31.32 201.717 31.96C203.317 32.6 204.869 33.336 206.373 34.168C207.909 35 209.269 36.04 210.453 37.288C211.669 38.536 212.629 40.04 213.333 41.8C214.069 43.56 214.437 45.672 214.437 48.136C214.437 51.656 213.829 54.968 212.613 58.072C211.397 61.176 209.653 63.896 207.381 66.232C205.109 68.536 202.341 70.376 199.077 71.752C195.845 73.096 192.197 73.768 188.133 73.768C186.117 73.768 184.085 73.544 182.037 73.096C180.021 72.648 178.069 72.024 176.181 71.224C174.325 70.392 172.597 69.416 170.997 68.296C169.397 67.176 168.037 65.928 166.917 64.552L172.485 57.256C172.933 56.712 173.477 56.264 174.117 55.912C174.789 55.56 175.461 55.384 176.133 55.384C177.029 55.384 177.893 55.704 178.725 56.344C179.589 56.952 180.533 57.64 181.557 58.408C182.581 59.144 183.765 59.832 185.109 60.472C186.485 61.08 188.165 61.384 190.149 61.384C193.061 61.384 195.301 60.6 196.869 59.032C198.469 57.432 199.269 55.08 199.269 51.976C199.269 50.536 198.901 49.352 198.165 48.424C197.461 47.496 196.517 46.712 195.333 46.072C194.181 45.432 192.853 44.872 191.349 44.392C189.845 43.88 188.309 43.336 186.741 42.76C185.173 42.184 183.637 41.512 182.133 40.744C180.629 39.944 179.285 38.92 178.101 37.672C176.949 36.392 176.005 34.84 175.269 33.016C174.565 31.16 174.213 28.888 174.213 26.2C174.213 23.096 174.789 20.12 175.941 17.272C177.125 14.392 178.805 11.848 180.981 9.64C183.157 7.432 185.797 5.672 188.901 4.36C192.005 3.048 195.493 2.392 199.365 2.392C201.349 2.392 203.269 2.6 205.125 3.016C207.013 3.432 208.773 4.008 210.405 4.744C212.037 5.48 213.525 6.36 214.869 7.384C216.213 8.376 217.349 9.464 218.277 10.648L213.573 17.08Z" fill="#1C0526"/>
</g>
<g filter="url(#filter1_d_0_1)">
<rect x="99" y="59" width="114" height="27" rx="6" fill="#3B9C6E"/>
</g>
<path d="M136.656 81L132.576 68.856H136.44L139.152 78.672L138.024 78.72L140.592 68.856H143.232L145.752 78.432H144.864L147.456 68.856H151.248L147.216 81H143.976L141.576 73.152L142.176 73.224L139.896 81H136.656ZM158.158 81.36C156.942 81.36 155.862 81.112 154.918 80.616C153.99 80.104 153.262 79.384 152.734 78.456C152.222 77.512 151.966 76.392 151.966 75.096C151.966 72.984 152.486 71.352 153.526 70.2C154.582 69.032 156.086 68.448 158.038 68.448C159.382 68.448 160.462 68.736 161.278 69.312C162.11 69.888 162.718 70.728 163.102 71.832C163.486 72.936 163.67 74.28 163.654 75.864H154.414L154.03 73.584H160.702L160.174 74.712C160.158 73.416 159.974 72.504 159.622 71.976C159.27 71.448 158.694 71.184 157.894 71.184C157.446 71.184 157.038 71.296 156.67 71.52C156.318 71.744 156.038 72.12 155.83 72.648C155.638 73.16 155.542 73.872 155.542 74.784C155.542 75.936 155.814 76.824 156.358 77.448C156.918 78.072 157.806 78.384 159.022 78.384C159.47 78.384 159.91 78.336 160.342 78.24C160.79 78.128 161.206 78 161.59 77.856C161.974 77.712 162.302 77.584 162.574 77.472V80.544C161.998 80.784 161.35 80.976 160.63 81.12C159.926 81.28 159.102 81.36 158.158 81.36ZM171.707 81.36C171.035 81.36 170.363 81.312 169.691 81.216C169.035 81.136 168.435 80.984 167.891 80.76C167.363 80.52 166.939 80.2 166.619 79.8C166.299 79.384 166.139 78.848 166.139 78.192V64.368H169.643V70.992L168.971 69.864C169.259 69.528 169.627 69.264 170.075 69.072C170.523 68.864 170.979 68.72 171.443 68.64C171.907 68.56 172.291 68.52 172.595 68.52C174.387 68.52 175.747 69.064 176.675 70.152C177.619 71.224 178.091 72.8 178.091 74.88C178.091 76.096 177.931 77.12 177.611 77.952C177.291 78.784 176.843 79.448 176.267 79.944C175.691 80.44 175.019 80.8 174.251 81.024C173.483 81.248 172.635 81.36 171.707 81.36ZM171.659 78.384C172.363 78.384 172.923 78.248 173.339 77.976C173.755 77.688 174.051 77.296 174.227 76.8C174.419 76.304 174.515 75.736 174.515 75.096C174.515 74.184 174.395 73.456 174.155 72.912C173.915 72.368 173.587 71.976 173.171 71.736C172.755 71.496 172.275 71.376 171.731 71.376C171.411 71.376 171.059 71.416 170.675 71.496C170.291 71.576 169.947 71.704 169.643 71.88V77.256C169.643 77.544 169.731 77.768 169.907 77.928C170.083 78.088 170.323 78.208 170.627 78.288C170.947 78.352 171.291 78.384 171.659 78.384Z" fill="white"/>
<defs>
<filter id="filter0_i_0_1" x="20.32" y="0.855999" width="197.957" height="76.912" filterUnits="userSpaceOnUse" color-interpolation-filters="sRGB">
<feFlood flood-opacity="0" result="BackgroundImageFix"/>
<feBlend mode="normal" in="SourceGraphic" in2="BackgroundImageFix" result="shape"/>
<feColorMatrix in="SourceAlpha" type="matrix" values="0 0 0 0 0 0 0 0 0 0 0 0 0 0 0 0 0 0 127 0" result="hardAlpha"/>
<feOffset dy="4"/>
<feGaussianBlur stdDeviation="2"/>
<feComposite in2="hardAlpha" operator="arithmetic" k2="-1" k3="1"/>
<feColorMatrix type="matrix" values="0 0 0 0 0 0 0 0 0 0 0 0 0 0 0 0 0 0 0.25 0"/>
<feBlend mode="normal" in2="shape" result="effect1_innerShadow_0_1"/>
</filter>
<filter id="filter1_d_0_1" x="95" y="59" width="122" height="35" filterUnits="userSpaceOnUse" color-interpolation-filters="sRGB">
<feFlood flood-opacity="0" result="BackgroundImageFix"/>
<feColorMatrix in="SourceAlpha" type="matrix" values="0 0 0 0 0 0 0 0 0 0 0 0 0 0 0 0 0 0 127 0" result="hardAlpha"/>
<feOffset dy="4"/>
<feGaussianBlur stdDeviation="2"/>
<feComposite in2="hardAlpha" operator="out"/>
<feColorMatrix type="matrix" values="0 0 0 0 0 0 0 0 0 0 0 0 0 0 0 0 0 0 0.25 0"/>
<feBlend mode="normal" in2="BackgroundImageFix" result="effect1_dropShadow_0_1"/>
<feBlend mode="normal" in="SourceGraphic" in2="effect1_dropShadow_0_1" result="shape"/>
</filter>
</defs>
</svg>
